REM DIRINDEX 1\5,1\2\6,1\2\7,1\3\8,1\3\9,1\4\10,1\4\11,1\4\12
REM DIRNAME folder01,folder02,folder03,folder04,folder05,folder06,folder07,folder08,folder09,folder10,folder11,folder12
TITLE ""
FILE "EJE_DB3000_5th_1A_11.mp3" MP3
  TRACK 01 AUDIO
    TITLE "0:"
    INDEX 01 00:00:00
  TRACK 02 AUDIO
    TITLE "10:cjc026_07155"
    INDEX 01 00:00:05
  TRACK 03 AUDIO
    TITLE "0:"
    INDEX 01 00:00:72
  TRACK 04 AUDIO
    TITLE "11:cjc026_07156"
    INDEX 01 00:01:22
  TRACK 05 AUDIO
    TITLE "0:"
    INDEX 01 00:03:14
  TRACK 06 AUDIO
    TITLE "12:cjc026_07157"
    INDEX 01 00:03:39
  TRACK 07 AUDIO
    TITLE "0:"
    INDEX 01 00:04:31
  TRACK 08 AUDIO
    TITLE "10:cjc026_07158"
    INDEX 01 00:04:58
  TRACK 09 AUDIO
    TITLE "0:"
    INDEX 01 00:05:44
  TRACK 10 AUDIO
    TITLE "11:cjc026_07159"
    INDEX 01 00:05:71
  TRACK 11 AUDIO
    TITLE "0:"
    INDEX 01 00:07:15
  TRACK 12 AUDIO
    TITLE "12:cjc026_07160"
    INDEX 01 00:07:39
  TRACK 13 AUDIO
    TITLE "0:"
    INDEX 01 00:08:28
  TRACK 14 AUDIO
    TITLE "10:cjc026_07161"
    INDEX 01 00:08:54
  TRACK 15 AUDIO
    TITLE "0:"
    INDEX 01 00:09:42
  TRACK 16 AUDIO
    TITLE "11:cjc026_07162"
    INDEX 01 00:09:69
  TRACK 17 AUDIO
    TITLE "0:"
    INDEX 01 00:10:63
  TRACK 18 AUDIO
    TITLE "12:cjc026_07163"
    INDEX 01 00:11:13
  TRACK 19 AUDIO
    TITLE "0:"
    INDEX 01 00:12:01
  TRACK 20 AUDIO
    TITLE "10:cjc026_07164"
    INDEX 01 00:12:26
  TRACK 21 AUDIO
    TITLE "0:"
    INDEX 01 00:13:20
  TRACK 22 AUDIO
    TITLE "11:cjc026_07165"
    INDEX 01 00:13:43
  TRACK 23 AUDIO
    TITLE "0:"
    INDEX 01 00:14:49
  TRACK 24 AUDIO
    TITLE "12:cjc026_07166"
    INDEX 01 00:14:74
  TRACK 25 AUDIO
    TITLE "0:"
    INDEX 01 00:15:66
  TRACK 26 AUDIO
    TITLE "10:cjc026_07167"
    INDEX 01 00:16:18
  TRACK 27 AUDIO
    TITLE "0:"
    INDEX 01 00:16:67
  TRACK 28 AUDIO
    TITLE "11:cjc026_07168"
    INDEX 01 00:17:25
  TRACK 29 AUDIO
    TITLE "0:"
    INDEX 01 00:18:27
  TRACK 30 AUDIO
    TITLE "12:cjc026_07169"
    INDEX 01 00:18:54
  TRACK 31 AUDIO
    TITLE "0:"
    INDEX 01 00:19:28
  TRACK 32 AUDIO
    TITLE "10:cjc026_07170"
    INDEX 01 00:19:65
  TRACK 33 AUDIO
    TITLE "0:"
    INDEX 01 00:20:49
  TRACK 34 AUDIO
    TITLE "11:cjc026_07171"
    INDEX 01 00:21:02
  TRACK 35 AUDIO
    TITLE "0:"
    INDEX 01 00:22:09
  TRACK 36 AUDIO
    TITLE "12:cjc026_07172"
    INDEX 01 00:22:36
  TRACK 37 AUDIO
    TITLE "0:"
    INDEX 01 00:23:22
  TRACK 38 AUDIO
    TITLE "10:cjc026_07173"
    INDEX 01 00:23:50
  TRACK 39 AUDIO
    TITLE "0:"
    INDEX 01 00:24:45
  TRACK 40 AUDIO
    TITLE "11:cjc026_07174"
    INDEX 01 00:24:71
  TRACK 41 AUDIO
    TITLE "0:"
    INDEX 01 00:26:13
  TRACK 42 AUDIO
    TITLE "12:cjc026_07175"
    INDEX 01 00:26:38
  TRACK 43 AUDIO
    TITLE "0:"
    INDEX 01 00:27:34
  TRACK 44 AUDIO
    TITLE "10:cjc026_07176"
    INDEX 01 00:27:59
  TRACK 45 AUDIO
    TITLE "0:"
    INDEX 01 00:28:47
  TRACK 46 AUDIO
    TITLE "11:cjc026_07177"
    INDEX 01 00:29:01
  TRACK 47 AUDIO
    TITLE "0:"
    INDEX 01 00:30:20
  TRACK 48 AUDIO
    TITLE "12:cjc026_07178"
    INDEX 01 00:30:46
  TRACK 49 AUDIO
    TITLE "0:"
    INDEX 01 00:31:31
  TRACK 50 AUDIO
    TITLE "10:cjc026_07179"
    INDEX 01 00:31:59
  TRACK 51 AUDIO
    TITLE "0:"
    INDEX 01 00:32:48
  TRACK 52 AUDIO
    TITLE "11:cjc026_07180"
    INDEX 01 00:32:74
  TRACK 53 AUDIO
    TITLE "0:"
    INDEX 01 00:34:02
  TRACK 54 AUDIO
    TITLE "12:cjc026_07181"
    INDEX 01 00:34:28
  TRACK 55 AUDIO
    TITLE "0:"
    INDEX 01 00:35:15
  TRACK 56 AUDIO
    TITLE "10:cjc026_07182"
    INDEX 01 00:35:43
  TRACK 57 AUDIO
    TITLE "0:"
    INDEX 01 00:36:38
  TRACK 58 AUDIO
    TITLE "11:cjc026_07183"
    INDEX 01 00:36:64
  TRACK 59 AUDIO
    TITLE "0:"
    INDEX 01 00:38:02
  TRACK 60 AUDIO
    TITLE "12:cjc026_07184"
    INDEX 01 00:38:28
  TRACK 61 AUDIO
    TITLE "0:"
    INDEX 01 00:39:23
  TRACK 62 AUDIO
    TITLE "10:cjc026_07185"
    INDEX 01 00:39:49
  TRACK 63 AUDIO
    TITLE "0:"
    INDEX 01 00:40:34
  TRACK 64 AUDIO
    TITLE "11:cjc026_07186"
    INDEX 01 00:40:60
  TRACK 65 AUDIO
    TITLE "0:"
    INDEX 01 00:41:67
  TRACK 66 AUDIO
    TITLE "12:cjc026_07187"
    INDEX 01 00:42:18
  TRACK 67 AUDIO
    TITLE "0:"
    INDEX 01 00:43:03
  TRACK 68 AUDIO
    TITLE "10:cjc026_07188"
    INDEX 01 00:43:29
  TRACK 69 AUDIO
    TITLE "0:"
    INDEX 01 00:44:36
  TRACK 70 AUDIO
    TITLE "11:cjc026_07189"
    INDEX 01 00:44:61
  TRACK 71 AUDIO
    TITLE "0:"
    INDEX 01 00:45:59
  TRACK 72 AUDIO
    TITLE "12:cjc026_07190"
    INDEX 01 00:46:11
  TRACK 73 AUDIO
    TITLE "0:"
    INDEX 01 00:47:17
  TRACK 74 AUDIO
    TITLE "10:cjc026_07191"
    INDEX 01 00:47:42
  TRACK 75 AUDIO
    TITLE "0:"
    INDEX 01 00:48:26
  TRACK 76 AUDIO
    TITLE "11:cjc026_07192"
    INDEX 01 00:48:53
  TRACK 77 AUDIO
    TITLE "0:"
    INDEX 01 00:49:51
  TRACK 78 AUDIO
    TITLE "12:cjc026_07193"
    INDEX 01 00:50:01
  TRACK 79 AUDIO
    TITLE "0:"
    INDEX 01 00:50:60
